<svg role="img" viewBox="0 0 24 24" xmlns="http://www.w3.org/2000/svg" fill="#FF9900">
  <path d="M6.763 10.036c0 .296.032.535.088.71.064.176.144.368.256.576.04.063.056.127.056.183 0 .08-.048.16-.152.24l-.503.335a.383.383 0 0 1-.208.072c-.08 0-.16-.04-.239-.112a2.47 2.47 0 0 1-.287-.335 5.803 5.803 0 0 1-.271-.447c-.68.807-1.534 1.21-2.563 1.21-.735 0-1.318-.207-1.742-.623C1.18 11.807.968 11.255.968 10.57c0-.727.256-1.315.775-1.758.519-.443 1.207-.663 2.079-.663.287 0 .583.024.895.072.311.048.63.12.95.207V7.717c0-.663-.136-1.127-.4-1.398-.271-.271-.727-.407-1.375-.407-.295 0-.599.032-.91.104-.311.072-.615.168-.91.287a2.36 2.36 0 0 1-.295.12.525.525 0 0 1-.136.024c-.12 0-.176-.088-.176-.271v-.431c0-.136.016-.24.056-.304a.59.59 0 0 1 .239-.176c.295-.152.647-.28 1.055-.383a5.18 5.18 0 0 1 1.303-.16c.99 0 1.718.224 2.19.672.463.447.703 1.127.703 2.038v2.685zm-3.4 1.278c.279 0 .566-.048.87-.152.303-.104.575-.287.799-.543.136-.16.239-.343.295-.55.056-.208.088-.463.088-.76v-.367a6.75 6.75 0 0 0-.751-.144 6.13 6.13 0 0 0-.767-.048c-.551 0-.95.104-1.215.327-.264.224-.39.535-.39.94 0 .39.103.687.318.886.207.207.503.311.87.311zm6.648.886c-.152 0-.256-.024-.327-.08-.072-.048-.136-.16-.191-.35L7.828 6.092c-.056-.2-.08-.327-.08-.391 0-.16.08-.248.239-.248h.95c.16 0 .271.024.335.08.072.048.128.16.184.35l1.27 5.01 1.183-5.01c.048-.2.104-.327.168-.375.072-.048.192-.08.351-.08h.775c.16 0 .271.024.343.08.072.048.136.16.184.375l1.199 5.074 1.31-5.074c.056-.2.12-.327.184-.375.072-.048.184-.08.335-.08h.902c.16 0 .248.08.248.248 0 .048-.008.096-.016.152a1.3 1.3 0 0 1-.056.24l-1.838 5.67c-.056.2-.12.327-.192.375-.072.048-.184.08-.327.08h-.831c-.16 0-.271-.024-.343-.08-.072-.056-.136-.176-.184-.367l-1.175-4.898-1.167 4.89c-.048.2-.112.32-.184.376-.072.048-.192.08-.343.08zm9.749.207c-.503 0-1.007-.056-1.494-.168-.487-.12-.87-.248-1.127-.4-.16-.088-.271-.184-.311-.279a.71.71 0 0 1-.056-.271v-.439c0-.183.072-.271.207-.271.056 0 .112.008.168.024.056.016.136.048.224.08.303.136.639.248 1.007.327.375.08.743.12 1.119.12.591 0 1.055-.104 1.375-.311.319-.208.495-.512.495-.903 0-.264-.088-.48-.264-.655-.176-.176-.503-.335-.974-.48l-1.399-.431c-.703-.224-1.223-.551-1.542-.982-.319-.423-.487-.894-.487-1.398 0-.4.088-.759.264-1.07.176-.312.415-.583.719-.799.303-.224.647-.391 1.047-.503.399-.12.822-.168 1.262-.168.224 0 .455.008.687.04.24.032.455.08.663.136.2.056.39.12.567.184.176.072.319.144.423.216.144.088.248.176.311.272a.57.57 0 0 1 .096.343v.407c0 .184-.072.28-.207.28a.46.46 0 0 1-.271-.096 3.578 3.578 0 0 0-1.278-.423 6.78 6.78 0 0 0-1.143-.096c-.535 0-.958.088-1.255.271-.295.184-.447.463-.447.846 0 .264.096.488.287.663.192.176.543.351 1.047.503l1.375.431c.695.224 1.199.543 1.503.958.303.415.455.894.455 1.422 0 .415-.088.791-.264 1.119a2.553 2.553 0 0 1-.743.862c-.319.24-.703.415-1.151.535-.463.128-.966.192-1.51.192z"/>
  <path d="M21.698 16.207c-2.626 1.94-6.442 2.969-9.722 2.969-4.598 0-8.74-1.7-11.87-4.526-.247-.223-.024-.527.271-.351 3.384 1.963 7.559 3.153 11.878 3.153 2.914 0 6.114-.607 9.06-1.852.439-.2.814.288.383.607z"/>
  <path d="M22.792 14.961c-.336-.43-2.22-.207-3.074-.103-.255.032-.295-.192-.063-.36 1.5-1.053 3.967-.751 4.254-.399.287.36-.08 2.826-1.487 4.007-.216.184-.423.088-.327-.151.319-.79 1.03-2.57.695-2.994z"/>
</svg>
